<svg xmlns="http://www.w3.org/2000/svg" viewBox="0 0 445.69 121"><defs><style>.cls-1{fill:#ff5640;}.cls-2{fill:#ff5944;}.cls-3{fill:#ff5d47;}.cls-4{fill:#ff604b;}.cls-5{fill:#ff634f;}.cls-6{fill:#ff6753;}.cls-7{fill:#ff6a56;}.cls-8{fill:#ff6d5a;}.cls-9{fill:#ff715e;}.cls-10{fill:#ff7462;}.cls-11{fill:#ff7765;}.cls-12{fill:#ff7a69;}.cls-13{fill:#ff7e6d;}.cls-14{fill:#ff8171;}.cls-15{fill:#ff8474;}.cls-16{fill:#ff8878;}.cls-17{fill:#ff8b7c;}.cls-18{fill:#ff8e80;}.cls-19{fill:#ff9283;}.cls-20{fill:#ff9587;}.cls-21{fill:#ff988b;}.cls-22{fill:#ff9c8f;}.cls-23{fill:#ff9f92;}.cls-24{fill:#ffa296;}.cls-25{fill:#ffa69a;}.cls-26{fill:#ffa99e;}.cls-27{fill:#ffaca1;}.cls-28{fill:#ffafa5;}.cls-29{fill:#ffb3a9;}.cls-30{fill:#ffb6ad;}.cls-31{fill:#ffb9b0;}.cls-32{fill:#ffbdb4;}.cls-33{fill:#ffc0b8;}.cls-34{fill:#ffc3bc;}.cls-35{fill:#ffc7bf;}.cls-36{fill:#ffcac3;}.cls-37{fill:#ffcdc7;}.cls-38{fill:#ffd1cb;}.cls-39{fill:#ffd4ce;}.cls-40{fill:#ffd7d2;}.cls-41{fill:#ffdbd6;}.cls-42{fill:#ffdeda;}.cls-43{fill:#ffe1dd;}.cls-44{fill:#ffe4e1;}.cls-45{fill:#ffe8e5;}.cls-46{fill:#ffebe9;}.cls-47{fill:#ffeeec;}.cls-48{fill:#fff2f0;}.cls-49{fill:#fff5f4;}.cls-50{fill:#fff8f8;}.cls-51{fill:#fffcfb;}.cls-52{fill:#fff;}</style></defs><title>logo_benef_3</title><g id="Calque_2" data-name="Calque 2"><g id="Calque_1-2" data-name="Calque 1"><path class="cls-1" d="M56.55,22.05H42.6L39,40.35H52.5c7.5,0,11.7-4.2,11.7-10.8C64.2,25.05,61.35,22.05,56.55,22.05ZM76.35,49.8c6.3,4.5,10.05,12,10.05,20.55a25.42,25.42,0,0,1-.6,5.7c-3.3,17.7-18.75,29-39.15,29H0L21,0H63.9C80.4,0,91.05,9.45,91.05,23.55a29.44,29.44,0,0,1-.6,6.15C88.8,38,83.85,44.85,76.35,49.8ZM59.4,69c0-4.65-2.7-7.65-7.95-7.65H34.65l-4,20.55H47c6.45,0,10.95-3.6,12.15-10.2A16.53,16.53,0,0,0,59.4,69Z"/><path class="cls-1" d="M170.39,23.4H130.05l-3.45,17H164l-4.8,22.95H122.1l-3.6,17.85h41.25L155.1,105H86.7l21-105H175Z"/><path class="cls-1" d="M243.29,0h27.3l-21,105H230.7L201.6,50.55,197.25,75.9,191.4,105H164.1l21-105h18.6l29.24,55.05,4.5-25.95Z"/><path class="cls-1" d="M346.19,23.4H305.85l-3.45,17h37.34l-4.8,22.95h-37l-3.6,17.85h41.24L330.89,105H262.5l21-105h67.34Z"/><path class="cls-1" d="M420.89,24.15h-37.5L379.34,44.4h34.2l-4.8,24H374.69L367.34,105H339.9l21-105h64.8Z"/><path class="cls-2" d="M56.94,22.36H43l-3.6,18.3h13.5c7.5,0,11.7-4.2,11.7-10.8C64.59,25.36,61.74,22.36,56.94,22.36Zm19.8,27.75c6.3,4.5,10.05,12,10.05,20.55a25.42,25.42,0,0,1-.6,5.7c-3.3,17.7-18.75,29-39.15,29H.39l21-105h42.9c16.5,0,27.15,9.45,27.15,23.55a29.44,29.44,0,0,1-.6,6.15C89.19,38.26,84.24,45.16,76.74,50.11ZM59.79,69.31c0-4.65-2.7-7.65-7.95-7.65H35L31,82.21H47.34c6.45,0,10.95-3.6,12.15-10.2A16.53,16.53,0,0,0,59.79,69.31Z"/><polygon class="cls-2" points="170.79 23.71 130.44 23.71 126.99 40.66 164.34 40.66 159.54 63.61 122.49 63.61 118.89 81.46 160.14 81.46 155.49 105.31 87.09 105.31 108.09 0.31 175.44 0.31 170.79 23.71"/><polygon class="cls-2" points="243.69 0.31 270.99 0.31 249.99 105.31 231.09 105.31 201.99 50.86 197.64 76.21 191.79 105.31 164.49 105.31 185.49 0.31 204.09 0.31 233.34 55.36 237.84 29.41 243.69 0.31"/><polygon class="cls-2" points="346.59 23.71 306.24 23.71 302.79 40.66 340.14 40.66 335.34 63.61 298.29 63.61 294.69 81.46 335.94 81.46 331.29 105.31 262.89 105.31 283.89 0.31 351.24 0.31 346.59 23.71"/><polygon class="cls-2" points="421.29 24.46 383.79 24.46 379.74 44.71 413.93 44.71 409.13 68.71 375.09 68.71 367.74 105.31 340.29 105.31 361.29 0.31 426.08 0.31 421.29 24.46"/><path class="cls-3" d="M57.33,22.68H43.38L39.78,41h13.5c7.5,0,11.7-4.2,11.7-10.8C65,25.68,62.13,22.68,57.33,22.68Zm19.8,27.75c6.3,4.5,10.05,12,10.05,20.54a25.42,25.42,0,0,1-.6,5.7c-3.3,17.7-18.75,29-39.15,29H.78l21-105h42.9c16.5,0,27.15,9.45,27.15,23.55a29.44,29.44,0,0,1-.6,6.15C89.58,38.58,84.63,45.48,77.13,50.43ZM60.18,69.62c0-4.65-2.7-7.65-8-7.65H35.43L31.38,82.52H47.73c6.45,0,11-3.6,12.15-10.2A16.53,16.53,0,0,0,60.18,69.62Z"/><polygon class="cls-3" points="171.18 24.03 130.83 24.03 127.38 40.98 164.73 40.98 159.93 63.92 122.88 63.92 119.28 81.77 160.53 81.77 155.88 105.62 87.48 105.62 108.48 0.63 175.83 0.63 171.18 24.03"/><polygon class="cls-3" points="244.08 0.63 271.38 0.63 250.38 105.62 231.48 105.62 202.38 51.17 198.03 76.52 192.18 105.62 164.88 105.62 185.88 0.63 204.48 0.63 233.73 55.67 238.23 29.73 244.08 0.63"/><polygon class="cls-3" points="346.98 24.03 306.63 24.03 303.18 40.98 340.53 40.98 335.73 63.92 298.68 63.92 295.08 81.77 336.33 81.77 331.68 105.62 263.28 105.62 284.28 0.63 351.63 0.63 346.98 24.03"/><polygon class="cls-3" points="421.68 24.78 384.18 24.78 380.13 45.02 414.33 45.02 409.53 69.02 375.48 69.02 368.13 105.62 340.68 105.62 361.68 0.63 426.48 0.63 421.68 24.78"/><path class="cls-4" d="M57.72,23H43.78l-3.61,18.3h13.5c7.5,0,11.7-4.2,11.7-10.8C65.37,26,62.52,23,57.72,23Zm19.8,27.75c6.3,4.5,10,12,10,20.55A25.42,25.42,0,0,1,87,77c-3.3,17.7-18.75,29-39.15,29H1.18l21-105H65.07c16.5,0,27.15,9.45,27.15,23.55a29.44,29.44,0,0,1-.6,6.15C90,38.89,85,45.79,77.52,50.74ZM60.57,69.94c0-4.65-2.7-7.65-8-7.65H35.82l-4,20.55H48.12c6.45,0,11-3.6,12.15-10.2A16.53,16.53,0,0,0,60.57,69.94Z"/><polygon class="cls-4" points="171.57 24.34 131.22 24.34 127.77 41.29 165.12 41.29 160.32 64.24 123.27 64.24 119.67 82.09 160.92 82.09 156.27 105.94 87.88 105.94 108.87 0.94 176.22 0.94 171.57 24.34"/><polygon class="cls-4" points="244.47 0.94 271.77 0.94 250.77 105.94 231.87 105.94 202.77 51.49 198.42 76.84 192.57 105.94 165.27 105.94 186.27 0.94 204.87 0.94 234.12 55.99 238.62 30.04 244.47 0.94"/><polygon class="cls-4" points="347.37 24.34 307.02 24.34 303.57 41.29 340.92 41.29 336.12 64.24 299.07 64.24 295.47 82.09 336.72 82.09 332.07 105.94 263.67 105.94 284.67 0.94 352.02 0.94 347.37 24.34"/><polygon class="cls-4" points="422.07 25.09 384.57 25.09 380.52 45.34 414.72 45.34 409.92 69.34 375.87 69.34 368.52 105.94 341.07 105.94 362.07 0.94 426.87 0.94 422.07 25.09"/><path class="cls-5" d="M58.12,23.3H44.17l-3.6,18.3h13.5c7.5,0,11.7-4.2,11.7-10.8C65.77,26.3,62.92,23.3,58.12,23.3Zm19.8,27.75c6.3,4.5,10,12,10,20.55a26,26,0,0,1-.6,5.7c-3.31,17.7-18.75,29-39.15,29H1.57l21-105h42.9C82,1.25,92.61,10.7,92.61,24.8A28.78,28.78,0,0,1,92,31C90.36,39.2,85.42,46.1,77.92,51.05ZM61,70.25c0-4.65-2.7-7.65-7.95-7.65H36.22l-4,20.55H48.52c6.45,0,10.95-3.6,12.15-10.2A16.53,16.53,0,0,0,61,70.25Z"/><polygon class="cls-5" points="171.96 24.65 131.62 24.65 128.16 41.6 165.51 41.6 160.71 64.55 123.67 64.55 120.07 82.4 161.31 82.4 156.66 106.25 88.27 106.25 109.27 1.25 176.61 1.25 171.96 24.65"/><polygon class="cls-5" points="244.86 1.25 272.16 1.25 251.16 106.25 232.26 106.25 203.16 51.8 198.81 77.15 192.97 106.25 165.67 106.25 186.66 1.25 205.26 1.25 234.51 56.3 239.01 30.35 244.86 1.25"/><polygon class="cls-5" points="347.76 24.65 307.41 24.65 303.96 41.6 341.31 41.6 336.51 64.55 299.46 64.55 295.87 82.4 337.11 82.4 332.46 106.25 264.07 106.25 285.06 1.25 352.41 1.25 347.76 24.65"/><polygon class="cls-5" points="422.46 25.4 384.96 25.4 380.91 45.65 415.11 45.65 410.31 69.65 376.26 69.65 368.91 106.25 341.46 106.25 362.46 1.25 427.26 1.25 422.46 25.4"/><path class="cls-6" d="M58.51,23.62H44.56L41,41.92h13.5c7.5,0,11.7-4.2,11.7-10.8C66.16,26.62,63.31,23.62,58.51,23.62Zm19.8,27.75c6.3,4.5,10,12,10,20.55a25.42,25.42,0,0,1-.6,5.7C84.46,95.31,69,106.56,48.61,106.56H2l21-105h42.9C82.36,1.57,93,11,93,25.12a29.44,29.44,0,0,1-.6,6.15C90.76,39.52,85.81,46.42,78.31,51.37Zm-17,19.2c0-4.65-2.7-7.65-8-7.65H36.61l-4,20.55H48.91c6.45,0,11-3.6,12.15-10.2A16.53,16.53,0,0,0,61.36,70.57Z"/><polygon class="cls-6" points="172.35 24.97 132.01 24.97 128.56 41.92 165.91 41.92 161.11 64.87 124.06 64.87 120.46 82.72 161.71 82.72 157.06 106.56 88.66 106.56 109.66 1.57 177.01 1.57 172.35 24.97"/><polygon class="cls-6" points="245.25 1.57 272.55 1.57 251.56 106.56 232.66 106.56 203.56 52.12 199.21 77.47 193.36 106.56 166.06 106.56 187.06 1.57 205.66 1.57 234.91 56.62 239.41 30.67 245.25 1.57"/><polygon class="cls-6" points="348.15 24.97 307.81 24.97 304.36 41.92 341.7 41.92 336.9 64.87 299.86 64.87 296.26 82.72 337.5 82.72 332.86 106.56 264.46 106.56 285.46 1.57 352.81 1.57 348.15 24.97"/><polygon class="cls-6" points="422.85 25.72 385.35 25.72 381.31 45.97 415.5 45.97 410.7 69.97 376.65 69.97 369.31 106.56 341.86 106.56 362.86 1.57 427.65 1.57 422.85 25.72"/><path class="cls-7" d="M58.9,23.93H45l-3.6,18.3h13.5c7.5,0,11.7-4.2,11.7-10.8C66.55,26.93,63.7,23.93,58.9,23.93ZM78.7,51.68c6.3,4.5,10,12,10,20.55a25.42,25.42,0,0,1-.6,5.7C84.85,95.63,69.4,106.88,49,106.88H2.35l21-105h42.9c16.5,0,27.15,9.45,27.15,23.55a29.44,29.44,0,0,1-.6,6.15C91.15,39.83,86.2,46.73,78.7,51.68Zm-17,19.2c0-4.65-2.7-7.65-8-7.65H37L33,83.78H49.3c6.45,0,11-3.6,12.15-10.2A16.53,16.53,0,0,0,61.75,70.88Z"/><polygon class="cls-7" points="172.75 25.28 132.4 25.28 128.95 42.23 166.3 42.23 161.5 65.18 124.45 65.18 120.85 83.03 162.1 83.03 157.45 106.88 89.05 106.88 110.05 1.88 177.4 1.88 172.75 25.28"/><polygon class="cls-7" points="245.65 1.88 272.95 1.88 251.95 106.88 233.05 106.88 203.95 52.43 199.6 77.78 193.75 106.88 166.45 106.88 187.45 1.88 206.05 1.88 235.3 56.93 239.8 30.98 245.65 1.88"/><polygon class="cls-7" points="348.55 25.28 308.2 25.28 304.75 42.23 342.1 42.23 337.3 65.18 300.25 65.18 296.65 83.03 337.9 83.03 333.25 106.88 264.85 106.88 285.85 1.88 353.2 1.88 348.55 25.28"/><polygon class="cls-7" points="423.25 26.03 385.75 26.03 381.7 46.28 415.89 46.28 411.1 70.28 377.05 70.28 369.7 106.88 342.25 106.88 363.25 1.88 428.05 1.88 423.25 26.03"/><path class="cls-8" d="M59.29,24.24H45.34l-3.6,18.3h13.5c7.5,0,11.7-4.2,11.7-10.8C66.94,27.24,64.09,24.24,59.29,24.24ZM79.09,52c6.3,4.5,10,12,10,20.55a25.42,25.42,0,0,1-.6,5.7c-3.3,17.7-18.75,29-39.15,29H2.75l21-105h42.9c16.5,0,27.15,9.45,27.15,23.54a29.37,29.37,0,0,1-.6,6.15C91.54,40.14,86.59,47,79.09,52Zm-17,19.2c0-4.65-2.7-7.65-8-7.65H37.39l-4,20.55H49.69c6.45,0,11-3.6,12.15-10.2A16.53,16.53,0,0,0,62.14,71.19Z"/><polygon class="cls-8" points="173.14 25.59 132.79 25.59 129.34 42.54 166.69 42.54 161.89 65.49 124.84 65.49 121.24 83.34 162.49 83.34 157.84 107.19 89.44 107.19 110.44 2.2 177.79 2.2 173.14 25.59"/><polygon class="cls-8" points="246.04 2.2 273.34 2.2 252.34 107.19 233.44 107.19 204.34 52.74 199.99 78.09 194.14 107.19 166.84 107.19 187.84 2.2 206.44 2.2 235.69 57.24 240.19 31.3 246.04 2.2"/><polygon class="cls-8" points="348.94 25.59 308.59 25.59 305.14 42.54 342.49 42.54 337.69 65.49 300.64 65.49 297.04 83.34 338.29 83.34 333.64 107.19 265.24 107.19 286.24 2.2 353.59 2.2 348.94 25.59"/><polygon class="cls-8" points="423.64 26.34 386.14 26.34 382.09 46.59 416.29 46.59 411.49 70.59 377.44 70.59 370.09 107.19 342.64 107.19 363.64 2.2 428.44 2.2 423.64 26.34"/><path class="cls-9" d="M59.69,24.56H45.74l-3.6,18.3h13.5c7.49,0,11.69-4.2,11.69-10.8C67.33,27.56,64.48,24.56,59.69,24.56ZM79.48,52.31c6.3,4.5,10,12,10,20.55a25.42,25.42,0,0,1-.6,5.7c-3.3,17.7-18.75,29-39.14,29H3.14l21-105H67c16.5,0,27.15,9.45,27.15,23.55a29.44,29.44,0,0,1-.6,6.15C91.93,40.46,87,47.36,79.48,52.31Zm-17,19.2c0-4.65-2.7-7.65-7.94-7.65H37.79l-4,20.55H50.09c6.44,0,10.94-3.6,12.14-10.2A16.53,16.53,0,0,0,62.53,71.51Z"/><polygon class="cls-9" points="173.53 25.91 133.18 25.91 129.73 42.86 167.08 42.86 162.28 65.81 125.23 65.81 121.63 83.66 162.88 83.66 158.23 107.5 89.83 107.5 110.83 2.51 178.18 2.51 173.53 25.91"/><polygon class="cls-9" points="246.43 2.51 273.73 2.51 252.73 107.5 233.83 107.5 204.73 53.06 200.38 78.41 194.53 107.5 167.24 107.5 188.23 2.51 206.83 2.51 236.08 57.56 240.58 31.61 246.43 2.51"/><polygon class="cls-9" points="349.33 25.91 308.98 25.91 305.53 42.86 342.88 42.86 338.08 65.81 301.03 65.81 297.43 83.66 338.68 83.66 334.03 107.5 265.63 107.5 286.63 2.51 353.98 2.51 349.33 25.91"/><polygon class="cls-9" points="424.03 26.66 386.53 26.66 382.48 46.91 416.68 46.91 411.88 70.91 377.83 70.91 370.48 107.5 343.03 107.5 364.03 2.51 428.83 2.51 424.03 26.66"/><path class="cls-10" d="M60.08,24.87H46.13l-3.6,18.3H56c7.5,0,11.7-4.2,11.7-10.8C67.73,27.87,64.88,24.87,60.08,24.87Zm19.8,27.75c6.3,4.5,10.05,12,10.05,20.55a25.42,25.42,0,0,1-.6,5.7c-3.3,17.7-18.75,28.95-39.15,28.95H3.53l21-105h42.9c16.5,0,27.15,9.45,27.15,23.55a29.44,29.44,0,0,1-.6,6.15C92.33,40.77,87.38,47.67,79.88,52.62ZM62.93,71.82c0-4.65-2.7-7.65-8-7.65H38.18l-4,20.55H50.48c6.45,0,11-3.6,12.15-10.2A16.53,16.53,0,0,0,62.93,71.82Z"/><polygon class="cls-10" points="173.92 26.22 133.58 26.22 130.13 43.17 167.47 43.17 162.68 66.12 125.63 66.12 122.03 83.97 163.28 83.97 158.63 107.82 90.23 107.82 111.23 2.82 178.57 2.82 173.92 26.22"/><polygon class="cls-10" points="246.82 2.82 274.12 2.82 253.12 107.82 234.22 107.82 205.13 53.37 200.78 78.72 194.93 107.82 167.63 107.82 188.63 2.82 207.23 2.82 236.47 57.87 240.97 31.92 246.82 2.82"/><polygon class="cls-10" points="349.72 26.22 309.38 26.22 305.93 43.17 343.27 43.17 338.47 66.12 301.43 66.12 297.82 83.97 339.07 83.97 334.42 107.82 266.03 107.82 287.03 2.82 354.37 2.82 349.72 26.22"/><polygon class="cls-10" points="424.42 26.97 386.92 26.97 382.87 47.22 417.07 47.22 412.27 71.22 378.22 71.22 370.87 107.82 343.43 107.82 364.42 2.82 429.22 2.82 424.42 26.97"/><path class="cls-11" d="M60.47,25.19H46.52l-3.6,18.3h13.5c7.5,0,11.7-4.2,11.7-10.8C68.12,28.19,65.27,25.19,60.47,25.19Zm19.8,27.75c6.3,4.5,10,12,10,20.54a25.42,25.42,0,0,1-.6,5.7c-3.3,17.7-18.75,28.95-39.15,28.95H3.92l21-105h42.9C84.32,3.14,95,12.59,95,26.69a29.44,29.44,0,0,1-.6,6.15C92.72,41.09,87.77,48,80.27,52.94ZM63.32,72.13c0-4.65-2.7-7.65-8-7.65H38.57L34.52,85H50.87c6.45,0,11-3.6,12.15-10.2A16.53,16.53,0,0,0,63.32,72.13Z"/><polygon class="cls-11" points="174.32 26.54 133.97 26.54 130.52 43.48 167.87 43.48 163.07 66.44 126.02 66.44 122.42 84.28 163.67 84.28 159.02 108.13 90.62 108.13 111.62 3.14 178.97 3.14 174.32 26.54"/><polygon class="cls-11" points="247.22 3.14 274.51 3.14 253.51 108.13 234.62 108.13 205.52 53.69 201.17 79.03 195.32 108.13 168.02 108.13 189.02 3.14 207.62 3.14 236.87 58.19 241.37 32.24 247.22 3.14"/><polygon class="cls-11" points="350.12 26.54 309.77 26.54 306.32 43.48 343.67 43.48 338.87 66.44 301.82 66.44 298.22 84.28 339.47 84.28 334.82 108.13 266.42 108.13 287.42 3.14 354.76 3.14 350.12 26.54"/><polygon class="cls-11" points="424.81 27.29 387.31 27.29 383.26 47.53 417.46 47.53 412.66 71.53 378.62 71.53 371.27 108.13 343.82 108.13 364.82 3.14 429.61 3.14 424.81 27.29"/><path class="cls-12" d="M60.86,25.5h-14l-3.6,18.3h13.5c7.5,0,11.7-4.2,11.7-10.8C68.51,28.5,65.66,25.5,60.86,25.5Zm19.8,27.75c6.3,4.5,10,12,10,20.55a25.42,25.42,0,0,1-.6,5.7c-3.3,17.7-18.75,29-39.15,29H4.31l21-105h42.9c16.5,0,27.15,9.45,27.15,23.55a29.44,29.44,0,0,1-.6,6.15C93.11,41.4,88.16,48.3,80.66,53.25ZM63.71,72.45c0-4.65-2.7-7.65-8-7.65H39L34.91,85.35H51.26c6.45,0,11-3.6,12.15-10.2A16.53,16.53,0,0,0,63.71,72.45Z"/><polygon class="cls-12" points="174.71 26.85 134.36 26.85 130.91 43.8 168.26 43.8 163.46 66.75 126.41 66.75 122.81 84.6 164.06 84.6 159.41 108.45 91.01 108.45 112.01 3.45 179.36 3.45 174.71 26.85"/><polygon class="cls-12" points="247.61 3.45 274.91 3.45 253.91 108.45 235.01 108.45 205.91 54 201.56 79.35 195.71 108.45 168.41 108.45 189.41 3.45 208.01 3.45 237.26 58.5 241.76 32.55 247.61 3.45"/><polygon class="cls-12" points="350.51 26.85 310.16 26.85 306.71 43.8 344.06 43.8 339.26 66.75 302.21 66.75 298.61 84.6 339.86 84.6 335.21 108.45 266.81 108.45 287.81 3.45 355.16 3.45 350.51 26.85"/><polygon class="cls-12" points="425.21 27.6 387.71 27.6 383.66 47.85 417.86 47.85 413.06 71.85 379.01 71.85 371.66 108.45 344.21 108.45 365.21 3.45 430.01 3.45 425.21 27.6"/><path class="cls-13" d="M61.25,25.81h-14l-3.6,18.3H57.2c7.5,0,11.7-4.2,11.7-10.8C68.9,28.81,66.05,25.81,61.25,25.81Zm19.8,27.75c6.3,4.5,10,12,10,20.55a25.42,25.42,0,0,1-.6,5.7c-3.3,17.7-18.75,29-39.15,29H4.71l21-105H68.6c16.5,0,27.15,9.45,27.15,23.55a29.44,29.44,0,0,1-.6,6.15C93.5,41.71,88.55,48.61,81.05,53.56Zm-17,19.2c0-4.65-2.7-7.65-7.95-7.65H39.35L35.3,85.66H51.65c6.45,0,11-3.6,12.15-10.2A16.53,16.53,0,0,0,64.1,72.76Z"/><polygon class="cls-13" points="175.1 27.16 134.75 27.16 131.3 44.11 168.65 44.11 163.85 67.06 126.8 67.06 123.2 84.91 164.45 84.91 159.8 108.76 91.4 108.76 112.4 3.77 179.75 3.77 175.1 27.16"/><polygon class="cls-13" points="248 3.77 275.3 3.77 254.3 108.76 235.4 108.76 206.3 54.31 201.95 79.66 196.1 108.76 168.8 108.76 189.8 3.77 208.4 3.77 237.65 58.81 242.15 32.86 248 3.77"/><polygon class="cls-13" points="350.9 27.16 310.55 27.16 307.1 44.11 344.45 44.11 339.65 67.06 302.6 67.06 299 84.91 340.25 84.91 335.6 108.76 267.2 108.76 288.2 3.77 355.55 3.77 350.9 27.16"/><polygon class="cls-13" points="425.6 27.91 388.1 27.91 384.05 48.16 418.25 48.16 413.45 72.16 379.4 72.16 372.05 108.76 344.6 108.76 365.6 3.77 430.4 3.77 425.6 27.91"/><path class="cls-14" d="M61.65,26.13H47.7l-3.6,18.3H57.6c7.5,0,11.7-4.2,11.7-10.8C69.3,29.13,66.45,26.13,61.65,26.13ZM81.44,53.88c6.3,4.5,10,12,10,20.55a25.42,25.42,0,0,1-.6,5.7c-3.3,17.69-18.75,28.94-39.14,28.94H5.1l21-105H69c16.49,0,27.14,9.45,27.14,23.55a29.44,29.44,0,0,1-.6,6.15C93.89,42,88.94,48.93,81.44,53.88ZM64.5,73.08c0-4.65-2.7-7.65-8-7.65H39.75L35.7,86H52.05c6.45,0,11-3.59,12.15-10.19A16.53,16.53,0,0,0,64.5,73.08Z"/><polygon class="cls-14" points="175.49 27.48 135.15 27.48 131.69 44.43 169.04 44.43 164.24 67.38 127.19 67.38 123.59 85.22 164.84 85.22 160.19 109.07 91.8 109.07 112.8 4.08 180.14 4.08 175.49 27.48"/><polygon class="cls-14" points="248.39 4.08 275.69 4.08 254.69 109.07 235.79 109.07 206.69 54.63 202.34 79.97 196.5 109.07 169.2 109.07 190.19 4.08 208.79 4.08 238.04 59.13 242.54 33.18 248.39 4.08"/><polygon class="cls-14" points="351.29 27.48 310.94 27.48 307.49 44.43 344.84 44.43 340.04 67.38 302.99 67.38 299.39 85.22 340.64 85.22 335.99 109.07 267.6 109.07 288.59 4.08 355.94 4.08 351.29 27.48"/><polygon class="cls-14" points="425.99 28.23 388.49 28.23 384.44 48.48 418.64 48.48 413.84 72.47 379.79 72.47 372.44 109.07 344.99 109.07 365.99 4.08 430.79 4.08 425.99 28.23"/><path class="cls-15" d="M62,26.44H48.09l-3.6,18.3H58c7.5,0,11.7-4.2,11.7-10.8C69.69,29.44,66.84,26.44,62,26.44Zm19.8,27.75c6.3,4.5,10,12,10,20.55a25.42,25.42,0,0,1-.6,5.7c-3.3,17.7-18.75,29-39.15,29H5.49l21-105h42.9c16.5,0,27.15,9.45,27.15,23.55a29.44,29.44,0,0,1-.6,6.15C94.29,42.34,89.34,49.24,81.84,54.19Zm-17,19.2c0-4.65-2.7-7.65-8-7.65H40.14l-4,20.55H52.44c6.45,0,11-3.6,12.15-10.2A16.53,16.53,0,0,0,64.89,73.39Z"/><polygon class="cls-15" points="175.88 27.79 135.54 27.79 132.09 44.74 169.44 44.74 164.64 67.69 127.59 67.69 123.99 85.54 165.24 85.54 160.59 109.39 92.19 109.39 113.19 4.39 180.53 4.39 175.88 27.79"/><polygon class="cls-15" points="248.78 4.39 276.08 4.39 255.08 109.39 236.19 109.39 207.09 54.94 202.74 80.29 196.89 109.39 169.59 109.39 190.59 4.39 209.19 4.39 238.44 59.44 242.94 33.49 248.78 4.39"/><polygon class="cls-15" points="351.68 27.79 311.34 27.79 307.89 44.74 345.23 44.74 340.44 67.69 303.39 67.69 299.79 85.54 341.03 85.54 336.38 109.39 267.99 109.39 288.99 4.39 356.33 4.39 351.68 27.79"/><polygon class="cls-15" points="426.38 28.54 388.88 28.54 384.83 48.79 419.03 48.79 414.23 72.79 380.19 72.79 372.83 109.39 345.39 109.39 366.38 4.39 431.18 4.39 426.38 28.54"/><path class="cls-16" d="M62.43,26.75h-14l-3.6,18.3h13.5c7.5,0,11.7-4.2,11.7-10.8C70.08,29.75,67.23,26.75,62.43,26.75ZM82.23,54.5c6.3,4.5,10,12,10,20.55a25.42,25.42,0,0,1-.6,5.7c-3.3,17.7-18.75,29-39.15,29H5.88l21-105h42.9c16.5,0,27.15,9.45,27.15,23.54a29.44,29.44,0,0,1-.6,6.15C94.68,42.65,89.73,49.55,82.23,54.5Zm-17,19.2c0-4.65-2.7-7.65-8-7.65H40.53L36.48,86.6H52.83c6.45,0,11-3.6,12.15-10.2A16.53,16.53,0,0,0,65.28,73.7Z"/><polygon class="cls-16" points="176.28 28.11 135.93 28.11 132.48 45.05 169.83 45.05 165.03 68 127.98 68 124.38 85.85 165.63 85.85 160.98 109.7 92.58 109.7 113.58 4.71 180.93 4.71 176.28 28.11"/><polygon class="cls-16" points="249.18 4.71 276.48 4.71 255.48 109.7 236.58 109.7 207.48 55.25 203.13 80.6 197.28 109.7 169.98 109.7 190.98 4.71 209.58 4.71 238.83 59.75 243.33 33.8 249.18 4.71"/><polygon class="cls-16" points="352.08 28.11 311.73 28.11 308.28 45.05 345.63 45.05 340.83 68 303.78 68 300.18 85.85 341.43 85.85 336.78 109.7 268.38 109.7 289.38 4.71 356.73 4.71 352.08 28.11"/><polygon class="cls-16" points="426.77 28.86 389.28 28.86 385.23 49.1 419.42 49.1 414.63 73.1 380.58 73.1 373.23 109.7 345.78 109.7 366.78 4.71 431.57 4.71 426.77 28.86"/><path class="cls-17" d="M62.82,27.07h-14l-3.6,18.3h13.5c7.5,0,11.7-4.2,11.7-10.8C70.47,30.07,67.62,27.07,62.82,27.07Zm19.8,27.75c6.3,4.5,10,12,10,20.55a25.42,25.42,0,0,1-.6,5.7c-3.3,17.7-18.75,29-39.15,29H6.27l21-105h42.9c16.5,0,27.15,9.45,27.15,23.55a29.44,29.44,0,0,1-.6,6.15C95.07,43,90.12,49.87,82.62,54.82ZM65.67,74c0-4.65-2.7-7.65-8-7.65H40.92L36.87,86.92H53.22c6.45,0,11-3.6,12.15-10.2A16.53,16.53,0,0,0,65.67,74Z"/><polygon class="cls-17" points="176.67 28.42 136.32 28.42 132.87 45.37 170.22 45.37 165.42 68.32 128.37 68.32 124.77 86.17 166.02 86.17 161.37 110.02 92.97 110.02 113.97 5.02 181.32 5.02 176.67 28.42"/><polygon class="cls-17" points="249.57 5.02 276.87 5.02 255.87 110.02 236.97 110.02 207.87 55.57 203.52 80.92 197.67 110.02 170.37 110.02 191.37 5.02 209.97 5.02 239.22 60.07 243.72 34.12 249.57 5.02"/><polygon class="cls-17" points="352.47 28.42 312.12 28.42 308.67 45.37 346.02 45.37 341.22 68.32 304.17 68.32 300.57 86.17 341.82 86.17 337.17 110.02 268.77 110.02 289.77 5.02 357.12 5.02 352.47 28.42"/><polygon class="cls-17" points="427.17 29.17 389.67 29.17 385.62 49.42 419.82 49.42 415.02 73.42 380.97 73.42 373.62 110.02 346.17 110.02 367.17 5.02 431.97 5.02 427.17 29.17"/><path class="cls-18" d="M63.21,27.38H49.27l-3.61,18.3h13.5c7.5,0,11.7-4.2,11.7-10.8C70.86,30.38,68,27.38,63.21,27.38ZM83,55.13c6.3,4.5,10,12,10,20.55a25.42,25.42,0,0,1-.6,5.7c-3.3,17.7-18.75,29-39.14,29H6.67l21-105H70.56c16.5,0,27.15,9.45,27.15,23.55a29.44,29.44,0,0,1-.6,6.15C95.46,43.28,90.51,50.18,83,55.13Zm-17,19.2c0-4.65-2.7-7.65-8-7.65H41.32l-4,20.55H53.61c6.45,0,11-3.6,12.15-10.2A16.53,16.53,0,0,0,66.06,74.33Z"/><polygon class="cls-18" points="177.06 28.73 136.71 28.73 133.26 45.68 170.61 45.68 165.81 68.63 128.76 68.63 125.16 86.48 166.41 86.48 161.76 110.33 93.36 110.33 114.36 5.33 181.71 5.33 177.06 28.73"/><polygon class="cls-18" points="249.96 5.33 277.26 5.33 256.26 110.33 237.36 110.33 208.26 55.88 203.91 81.23 198.06 110.33 170.76 110.33 191.76 5.33 210.36 5.33 239.61 60.38 244.11 34.43 249.96 5.33"/><polygon class="cls-18" points="352.86 28.73 312.51 28.73 309.06 45.68 346.41 45.68 341.61 68.63 304.56 68.63 300.96 86.48 342.21 86.48 337.56 110.33 269.16 110.33 290.16 5.33 357.51 5.33 352.86 28.73"/><polygon class="cls-18" points="427.56 29.48 390.06 29.48 386.01 49.73 420.21 49.73 415.41 73.73 381.36 73.73 374.01 110.33 346.56 110.33 367.56 5.33 432.36 5.33 427.56 29.48"/><path class="cls-19" d="M63.61,27.7h-14L46.06,46h13.5c7.5,0,11.7-4.2,11.7-10.8C71.26,30.7,68.41,27.7,63.61,27.7Zm19.8,27.74c6.3,4.5,10,12,10,20.55a26,26,0,0,1-.6,5.7c-3.31,17.7-18.75,29-39.15,29H7.06l21-105H71c16.5,0,27.14,9.45,27.14,23.55a29.41,29.41,0,0,1-.59,6.15C95.85,43.6,90.91,50.5,83.41,55.44Zm-17,19.2c0-4.65-2.7-7.65-7.95-7.65H41.71L37.66,87.54H54c6.45,0,10.95-3.6,12.15-10.2A16.53,16.53,0,0,0,66.46,74.64Z"/><polygon class="cls-19" points="177.45 29.05 137.11 29.05 133.66 45.99 171 45.99 166.2 68.94 129.16 68.94 125.56 86.79 166.8 86.79 162.16 110.64 93.76 110.64 114.76 5.65 182.1 5.65 177.45 29.05"/><polygon class="cls-19" points="250.35 5.65 277.65 5.65 256.65 110.64 237.75 110.64 208.66 56.2 204.31 81.54 198.46 110.64 171.16 110.64 192.16 5.65 210.75 5.65 240 60.7 244.5 34.75 250.35 5.65"/><polygon class="cls-19" points="353.25 29.05 312.9 29.05 309.45 45.99 346.8 45.99 342 68.94 304.95 68.94 301.36 86.79 342.6 86.79 337.95 110.64 269.56 110.64 290.56 5.65 357.9 5.65 353.25 29.05"/><polygon class="cls-19" points="427.95 29.8 390.45 29.8 386.4 50.05 420.6 50.05 415.8 74.04 381.75 74.04 374.4 110.64 346.95 110.64 367.95 5.65 432.75 5.65 427.95 29.8"/><path class="cls-20" d="M64,28h-14l-3.6,18.3H60c7.5,0,11.7-4.2,11.7-10.8C71.65,31,68.8,28,64,28ZM83.8,55.76c6.3,4.5,10,12,10,20.55a25.42,25.42,0,0,1-.6,5.7C90,99.71,74.5,111,54.1,111H7.45l21-105h42.9C87.85,6,98.5,15.41,98.5,29.51a29.44,29.44,0,0,1-.6,6.15C96.25,43.91,91.3,50.81,83.8,55.76ZM66.85,75c0-4.65-2.7-7.65-7.95-7.65H42.1L38.05,87.86H54.4c6.45,0,10.95-3.6,12.15-10.2A16.53,16.53,0,0,0,66.85,75Z"/><polygon class="cls-20" points="177.85 29.36 137.5 29.36 134.05 46.31 171.4 46.31 166.6 69.26 129.55 69.26 125.95 87.11 167.2 87.11 162.55 110.96 94.15 110.96 115.15 5.96 182.5 5.96 177.85 29.36"/><polygon class="cls-20" points="250.75 5.96 278.04 5.96 257.05 110.96 238.15 110.96 209.05 56.51 204.7 81.86 198.85 110.96 171.55 110.96 192.55 5.96 211.15 5.96 240.4 61.01 244.9 35.06 250.75 5.96"/><polygon class="cls-20" points="353.64 29.36 313.3 29.36 309.85 46.31 347.19 46.31 342.39 69.26 305.35 69.26 301.75 87.11 343 87.11 338.35 110.96 269.95 110.96 290.95 5.96 358.3 5.96 353.64 29.36"/><polygon class="cls-20" points="428.34 30.11 390.85 30.11 386.8 50.36 420.99 50.36 416.19 74.36 382.14 74.36 374.8 110.96 347.35 110.96 368.35 5.96 433.14 5.96 428.34 30.11"/><path class="cls-21" d="M64.39,28.32h-14l-3.6,18.3h13.5c7.5,0,11.7-4.2,11.7-10.8C72,31.32,69.19,28.32,64.39,28.32Zm19.8,27.75c6.3,4.5,10,12,10,20.55a25.42,25.42,0,0,1-.6,5.7c-3.3,17.7-18.75,29-39.15,29H7.84l21-105h42.9c16.5,0,27.15,9.45,27.15,23.55a29.44,29.44,0,0,1-.6,6.15C96.64,44.22,91.69,51.12,84.19,56.07Zm-17,19.2c0-4.65-2.7-7.65-7.95-7.65H42.49L38.44,88.17H54.79c6.45,0,10.95-3.6,12.15-10.2A16.53,16.53,0,0,0,67.24,75.27Z"/><polygon class="cls-21" points="178.24 29.67 137.89 29.67 134.44 46.62 171.79 46.62 166.99 69.57 129.94 69.57 126.34 87.42 167.59 87.42 162.94 111.27 94.54 111.27 115.54 6.28 182.89 6.28 178.24 29.67"/><polygon class="cls-21" points="251.14 6.28 278.44 6.28 257.44 111.27 238.54 111.27 209.44 56.82 205.09 82.17 199.24 111.27 171.94 111.27 192.94 6.28 211.54 6.28 240.79 61.32 245.29 35.37 251.14 6.28"/><polygon class="cls-21" points="354.04 29.67 313.69 29.67 310.24 46.62 347.59 46.62 342.79 69.57 305.74 69.57 302.14 87.42 343.39 87.42 338.74 111.27 270.34 111.27 291.34 6.28 358.69 6.28 354.04 29.67"/><polygon class="cls-21" points="428.74 30.42 391.24 30.42 387.19 50.67 421.38 50.67 416.58 74.67 382.54 74.67 375.19 111.27 347.74 111.27 368.74 6.28 433.54 6.28 428.74 30.42"/><path class="cls-22" d="M64.78,28.64h-14l-3.6,18.3h13.5c7.5,0,11.7-4.2,11.7-10.8C72.43,31.64,69.58,28.64,64.78,28.64Zm19.8,27.75c6.3,4.5,10,12,10,20.55a25.48,25.48,0,0,1-.6,5.7c-3.3,17.69-18.75,28.94-39.15,28.94H8.24l21-105h42.9c16.5,0,27.15,9.45,27.15,23.55a29.44,29.44,0,0,1-.6,6.15C97,44.54,92.08,51.44,84.58,56.39Zm-17,19.2c0-4.65-2.7-7.65-7.95-7.65H42.88L38.83,88.48H55.18c6.45,0,10.95-3.59,12.15-10.19A16.53,16.53,0,0,0,67.63,75.59Z"/><polygon class="cls-22" points="178.63 29.99 138.28 29.99 134.83 46.94 172.18 46.94 167.38 69.89 130.33 69.89 126.73 87.73 167.98 87.73 163.33 111.58 94.93 111.58 115.93 6.59 183.28 6.59 178.63 29.99"/><polygon class="cls-22" points="251.53 6.59 278.83 6.59 257.83 111.58 238.93 111.58 209.83 57.14 205.48 82.48 199.63 111.58 172.33 111.58 193.33 6.59 211.93 6.59 241.18 61.64 245.68 35.69 251.53 6.59"/><polygon class="cls-22" points="354.43 29.99 314.08 29.99 310.63 46.94 347.98 46.94 343.18 69.89 306.13 69.89 302.53 87.73 343.78 87.73 339.13 111.58 270.73 111.58 291.73 6.59 359.08 6.59 354.43 29.99"/><polygon class="cls-22" points="429.13 30.74 391.63 30.74 387.58 50.99 421.78 50.99 416.98 74.98 382.93 74.98 375.58 111.58 348.13 111.58 369.13 6.59 433.93 6.59 429.13 30.74"/><path class="cls-23" d="M65.18,29h-14l-3.6,18.3h13.5c7.49,0,11.69-4.2,11.69-10.8C72.82,32,70,29,65.18,29ZM85,56.7c6.3,4.5,10,12,10,20.55a25.42,25.42,0,0,1-.6,5.7c-3.3,17.7-18.75,29-39.14,29H8.63l21-105H72.52c16.5,0,27.15,9.45,27.15,23.55a29.44,29.44,0,0,1-.6,6.15C97.42,44.85,92.47,51.75,85,56.7ZM68,75.9c0-4.65-2.7-7.65-7.94-7.65H43.28L39.23,88.8H55.58c6.44,0,10.94-3.6,12.15-10.2A17.68,17.68,0,0,0,68,75.9Z"/><polygon class="cls-23" points="179.02 30.3 138.67 30.3 135.22 47.25 172.57 47.25 167.77 70.2 130.72 70.2 127.13 88.05 168.37 88.05 163.72 111.9 95.33 111.9 116.33 6.9 183.67 6.9 179.02 30.3"/><polygon class="cls-23" points="251.92 6.9 279.22 6.9 258.22 111.9 239.32 111.9 210.22 57.45 205.87 82.8 200.02 111.9 172.72 111.9 193.72 6.9 212.32 6.9 241.57 61.95 246.07 36 251.92 6.9"/><polygon class="cls-23" points="354.82 30.3 314.47 30.3 311.02 47.25 348.37 47.25 343.57 70.2 306.52 70.2 302.92 88.05 344.17 88.05 339.52 111.9 271.13 111.9 292.12 6.9 359.47 6.9 354.82 30.3"/><polygon class="cls-23" points="429.52 31.05 392.02 31.05 387.97 51.3 422.17 51.3 417.37 75.3 383.32 75.3 375.97 111.9 348.52 111.9 369.52 6.9 434.32 6.9 429.52 31.05"/><path class="cls-24" d="M65.57,29.26H51.62L48,47.56h13.5c7.5,0,11.7-4.2,11.7-10.8C73.22,32.26,70.37,29.26,65.57,29.26ZM85.37,57c6.3,4.5,10,12,10,20.55a25.42,25.42,0,0,1-.6,5.7c-3.3,17.7-18.75,28.95-39.15,28.95H9l21-105h42.9c16.5,0,27.15,9.45,27.15,23.54a29.44,29.44,0,0,1-.6,6.15C97.82,45.16,92.87,52.06,85.37,57Zm-17,19.2c0-4.65-2.7-7.65-8-7.65H43.67L39.62,89.11H56c6.45,0,11-3.6,12.15-10.2A16.53,16.53,0,0,0,68.42,76.21Z"/><polygon class="cls-24" points="179.41 30.61 139.07 30.61 135.62 47.56 172.97 47.56 168.16 70.51 131.12 70.51 127.52 88.36 168.76 88.36 164.12 112.21 95.72 112.21 116.72 7.22 184.06 7.22 179.41 30.61"/><polygon class="cls-24" points="252.31 7.22 279.61 7.22 258.61 112.21 239.72 112.21 210.62 57.76 206.27 83.11 200.42 112.21 173.12 112.21 194.12 7.22 212.72 7.22 241.96 62.26 246.46 36.31 252.31 7.22"/><polygon class="cls-24" points="355.21 30.61 314.87 30.61 311.42 47.56 348.76 47.56 343.96 70.51 306.92 70.51 303.32 88.36 344.56 88.36 339.91 112.21 271.52 112.21 292.52 7.22 359.86 7.22 355.21 30.61"/><polygon class="cls-24" points="429.91 31.36 392.41 31.36 388.36 51.61 422.56 51.61 417.76 75.61 383.71 75.61 376.36 112.21 348.92 112.21 369.91 7.22 434.71 7.22 429.91 31.36"/><path class="cls-25" d="M66,29.58H52l-3.6,18.3h13.5c7.5,0,11.7-4.2,11.7-10.8C73.61,32.58,70.76,29.58,66,29.58Zm19.8,27.75c6.3,4.5,10,12,10,20.55a25.42,25.42,0,0,1-.6,5.7c-3.3,17.7-18.75,29-39.15,29H9.41l21-105h42.9c16.5,0,27.15,9.45,27.15,23.55a29.44,29.44,0,0,1-.6,6.15C98.21,45.48,93.26,52.38,85.76,57.33Zm-17,19.2c0-4.65-2.7-7.65-8-7.65H44.06L40,89.43H56.36c6.45,0,11-3.6,12.15-10.2A16.53,16.53,0,0,0,68.81,76.53Z"/><polygon class="cls-25" points="179.81 30.93 139.46 30.93 136.01 47.88 173.36 47.88 168.56 70.83 131.51 70.83 127.91 88.68 169.16 88.68 164.51 112.53 96.11 112.53 117.11 7.53 184.46 7.53 179.81 30.93"/><polygon class="cls-25" points="252.71 7.53 280 7.53 259.01 112.53 240.11 112.53 211.01 58.08 206.66 83.43 200.81 112.53 173.51 112.53 194.51 7.53 213.11 7.53 242.36 62.58 246.86 36.63 252.71 7.53"/><polygon class="cls-25" points="355.61 30.93 315.26 30.93 311.81 47.88 349.16 47.88 344.36 70.83 307.31 70.83 303.71 88.68 344.96 88.68 340.31 112.53 271.91 112.53 292.91 7.53 360.26 7.53 355.61 30.93"/><polygon class="cls-25" points="430.3 31.68 392.81 31.68 388.76 51.93 422.95 51.93 418.15 75.93 384.11 75.93 376.76 112.53 349.31 112.53 370.31 7.53 435.1 7.53 430.3 31.68"/><path class="cls-26" d="M66.35,29.89H52.4l-3.6,18.3H62.3c7.5,0,11.7-4.2,11.7-10.8C74,32.89,71.15,29.89,66.35,29.89Zm19.8,27.75c6.3,4.5,10,12,10,20.55a25.42,25.42,0,0,1-.6,5.7c-3.3,17.7-18.75,29-39.15,29H9.8l21-105H73.7c16.5,0,27.15,9.45,27.15,23.55a29.44,29.44,0,0,1-.6,6.15C98.6,45.79,93.65,52.69,86.15,57.64Zm-17,19.2c0-4.65-2.7-7.65-8-7.65H44.45L40.4,89.74H56.75c6.45,0,11-3.6,12.15-10.2A16.53,16.53,0,0,0,69.2,76.84Z"/><polygon class="cls-26" points="180.2 31.24 139.85 31.24 136.4 48.19 173.75 48.19 168.95 71.14 131.9 71.14 128.3 88.99 169.55 88.99 164.9 112.84 96.5 112.84 117.5 7.84 184.85 7.84 180.2 31.24"/><polygon class="cls-26" points="253.1 7.84 280.4 7.84 259.4 112.84 240.5 112.84 211.4 58.39 207.05 83.74 201.2 112.84 173.9 112.84 194.9 7.84 213.5 7.84 242.75 62.89 247.25 36.94 253.1 7.84"/><polygon class="cls-26" points="356 31.24 315.65 31.24 312.2 48.19 349.55 48.19 344.75 71.14 307.7 71.14 304.1 88.99 345.35 88.99 340.7 112.84 272.3 112.84 293.3 7.84 360.65 7.84 356 31.24"/><polygon class="cls-26" points="430.7 31.99 393.2 31.99 389.15 52.24 423.35 52.24 418.55 76.24 384.5 76.24 377.15 112.84 349.7 112.84 370.7 7.84 435.5 7.84 430.7 31.99"/><path class="cls-27" d="M66.74,30.21H52.79l-3.6,18.3h13.5c7.5,0,11.7-4.2,11.7-10.8C74.39,33.21,71.54,30.21,66.74,30.21ZM86.54,58c6.3,4.5,10,12,10,20.55a25.42,25.42,0,0,1-.6,5.7c-3.3,17.7-18.75,29-39.15,29H10.2l21-105H74.09c16.5,0,27.15,9.45,27.15,23.55a29.44,29.44,0,0,1-.6,6.15C99,46.11,94,53,86.54,58Zm-17,19.2c0-4.65-2.7-7.65-8-7.65H44.84L40.79,90.05H57.14c6.45,0,11-3.6,12.15-10.2A16.53,16.53,0,0,0,69.59,77.15Z"/><polygon class="cls-27" points="180.59 31.56 140.24 31.56 136.79 48.51 174.14 48.51 169.34 71.45 132.29 71.45 128.69 89.3 169.94 89.3 165.29 113.15 96.89 113.15 117.89 8.16 185.24 8.16 180.59 31.56"/><polygon class="cls-27" points="253.49 8.16 280.79 8.16 259.79 113.15 240.89 113.15 211.79 58.7 207.44 84.05 201.59 113.15 174.29 113.15 195.29 8.16 213.89 8.16 243.14 63.2 247.64 37.26 253.49 8.16"/><polygon class="cls-27" points="356.39 31.56 316.04 31.56 312.59 48.51 349.94 48.51 345.14 71.45 308.09 71.45 304.49 89.3 345.74 89.3 341.09 113.15 272.69 113.15 293.69 8.16 361.04 8.16 356.39 31.56"/><polygon class="cls-27" points="431.09 32.31 393.59 32.31 389.54 52.55 423.74 52.55 418.94 76.55 384.89 76.55 377.54 113.15 350.09 113.15 371.09 8.16 435.89 8.16 431.09 32.31"/><path class="cls-28" d="M67.14,30.52h-14l-3.6,18.3h13.5c7.5,0,11.7-4.2,11.7-10.8C74.79,33.52,71.94,30.52,67.14,30.52ZM86.93,58.27c6.3,4.5,10,12,10,20.55a26,26,0,0,1-.59,5.7c-3.31,17.7-18.75,29-39.15,29H10.59l21-105h42.9C91,8.47,101.63,17.92,101.63,32a29.44,29.44,0,0,1-.6,6.15C99.38,46.42,94.43,53.32,86.93,58.27ZM70,77.47c0-4.65-2.7-7.65-7.95-7.65H45.24L41.19,90.37H57.54c6.45,0,10.95-3.6,12.15-10.2A16.53,16.53,0,0,0,70,77.47Z"/><polygon class="cls-28" points="180.98 31.87 140.63 31.87 137.19 48.82 174.53 48.82 169.73 71.77 132.69 71.77 129.09 89.62 170.33 89.62 165.68 113.47 97.29 113.47 118.29 8.47 185.63 8.47 180.98 31.87"/><polygon class="cls-28" points="253.88 8.47 281.18 8.47 260.18 113.47 241.28 113.47 212.18 59.02 207.83 84.37 201.99 113.47 174.69 113.47 195.69 8.47 214.28 8.47 243.53 63.52 248.03 37.57 253.88 8.47"/><polygon class="cls-28" points="356.78 31.87 316.43 31.87 312.98 48.82 350.33 48.82 345.53 71.77 308.48 71.77 304.88 89.62 346.13 89.62 341.48 113.47 273.08 113.47 294.08 8.47 361.43 8.47 356.78 31.87"/><polygon class="cls-28" points="431.48 32.62 393.98 32.62 389.93 52.87 424.13 52.87 419.33 76.87 385.28 76.87 377.93 113.47 350.48 113.47 371.48 8.47 436.28 8.47 431.48 32.62"/><path class="cls-29" d="M67.53,30.83h-14L50,49.13h13.5c7.5,0,11.7-4.2,11.7-10.8C75.18,33.83,72.33,30.83,67.53,30.83Zm19.8,27.75c6.3,4.5,10,12,10,20.55a25.42,25.42,0,0,1-.6,5.7c-3.3,17.7-18.75,29-39.15,29H11l21-105h42.9c16.5,0,27.15,9.45,27.15,23.55a29.44,29.44,0,0,1-.6,6.15C99.78,46.73,94.83,53.63,87.33,58.58Zm-17,19.2c0-4.65-2.7-7.65-7.95-7.65H45.63L41.58,90.68H57.93c6.45,0,10.95-3.6,12.15-10.2A16.53,16.53,0,0,0,70.38,77.78Z"/><polygon class="cls-29" points="181.38 32.18 141.03 32.18 137.58 49.13 174.93 49.13 170.13 72.08 133.08 72.08 129.48 89.93 170.73 89.93 166.08 113.78 97.68 113.78 118.68 8.78 186.03 8.78 181.38 32.18"/><polygon class="cls-29" points="254.27 8.78 281.57 8.78 260.57 113.78 241.68 113.78 212.58 59.33 208.23 84.68 202.38 113.78 175.08 113.78 196.08 8.78 214.68 8.78 243.93 63.83 248.43 37.88 254.27 8.78"/><polygon class="cls-29" points="357.17 32.18 316.83 32.18 313.38 49.13 350.73 49.13 345.93 72.08 308.88 72.08 305.28 89.93 346.52 89.93 341.88 113.78 273.48 113.78 294.48 8.78 361.82 8.78 357.17 32.18"/><polygon class="cls-29" points="431.87 32.93 394.37 32.93 390.32 53.18 424.52 53.18 419.72 77.18 385.68 77.18 378.32 113.78 350.88 113.78 371.88 8.78 436.67 8.78 431.87 32.93"/><path class="cls-30" d="M67.92,31.15H54l-3.6,18.3h13.5c7.5,0,11.7-4.2,11.7-10.8C75.57,34.15,72.72,31.15,67.92,31.15ZM87.72,58.9c6.3,4.5,10,12,10,20.55a25.34,25.34,0,0,1-.6,5.69c-3.3,17.7-18.75,29-39.15,29H11.37l21-105h42.9c16.5,0,27.15,9.45,27.15,23.55a29.44,29.44,0,0,1-.6,6.15C100.17,47.05,95.22,54,87.72,58.9Zm-17,19.2c0-4.65-2.7-7.65-7.95-7.65H46L42,91H58.32c6.45,0,10.95-3.6,12.15-10.2A16.41,16.41,0,0,0,70.77,78.1Z"/><polygon class="cls-30" points="181.77 32.5 141.42 32.5 137.97 49.45 175.32 49.45 170.52 72.39 133.47 72.39 129.87 90.25 171.12 90.25 166.47 114.09 98.07 114.09 119.07 9.1 186.42 9.1 181.77 32.5"/><polygon class="cls-30" points="254.67 9.1 281.96 9.1 260.97 114.09 242.07 114.09 212.97 59.65 208.62 85 202.77 114.09 175.47 114.09 196.47 9.1 215.07 9.1 244.32 64.15 248.82 38.2 254.67 9.1"/><polygon class="cls-30" points="357.57 32.5 317.22 32.5 313.77 49.45 351.12 49.45 346.32 72.39 309.27 72.39 305.67 90.25 346.92 90.25 342.27 114.09 273.87 114.09 294.87 9.1 362.22 9.1 357.57 32.5"/><polygon class="cls-30" points="432.26 33.25 394.77 33.25 390.72 53.5 424.92 53.5 420.12 77.5 386.07 77.5 378.72 114.09 351.27 114.09 372.27 9.1 437.06 9.1 432.26 33.25"/><path class="cls-31" d="M68.31,31.46h-14l-3.6,18.3h13.5c7.5,0,11.7-4.2,11.7-10.8C76,34.46,73.11,31.46,68.31,31.46Zm19.8,27.75c6.3,4.5,10,12,10,20.55a25.42,25.42,0,0,1-.6,5.7c-3.3,17.7-18.75,29-39.15,29H11.76l21-105h42.9c16.5,0,27.15,9.45,27.15,23.55a29.44,29.44,0,0,1-.6,6.15C100.56,47.36,95.61,54.26,88.11,59.21Zm-17,19.2c0-4.65-2.7-7.65-7.95-7.65H46.41l-4,20.55H58.71c6.45,0,10.95-3.6,12.15-10.2A16.53,16.53,0,0,0,71.16,78.41Z"/><polygon class="cls-31" points="182.16 32.81 141.81 32.81 138.36 49.76 175.71 49.76 170.91 72.71 133.86 72.71 130.26 90.56 171.51 90.56 166.86 114.41 98.46 114.41 119.46 9.41 186.81 9.41 182.16 32.81"/><polygon class="cls-31" points="255.06 9.41 282.36 9.41 261.36 114.41 242.46 114.41 213.36 59.96 209.01 85.31 203.16 114.41 175.86 114.41 196.86 9.41 215.46 9.41 244.71 64.46 249.21 38.51 255.06 9.41"/><polygon class="cls-31" points="357.96 32.81 317.61 32.81 314.16 49.76 351.51 49.76 346.71 72.71 309.66 72.71 306.06 90.56 347.31 90.56 342.66 114.41 274.26 114.41 295.26 9.41 362.61 9.41 357.96 32.81"/><polygon class="cls-31" points="432.66 33.56 395.16 33.56 391.11 53.81 425.31 53.81 420.51 77.81 386.46 77.81 379.11 114.41 351.66 114.41 372.66 9.41 437.46 9.41 432.66 33.56"/><path class="cls-32" d="M68.7,31.77H54.76l-3.61,18.3h13.5c7.5,0,11.7-4.2,11.7-10.8C76.35,34.77,73.5,31.77,68.7,31.77ZM88.5,59.52c6.3,4.5,10,12,10,20.55a25.42,25.42,0,0,1-.6,5.7c-3.3,17.7-18.75,29-39.14,29H12.16l21-105H76.05c16.5,0,27.15,9.45,27.15,23.54a29.44,29.44,0,0,1-.6,6.15C101,47.67,96,54.57,88.5,59.52Zm-17,19.2c0-4.65-2.7-7.65-7.94-7.65H46.81L42.76,91.62H59.11c6.44,0,10.94-3.6,12.14-10.2A16.53,16.53,0,0,0,71.55,78.72Z"/><polygon class="cls-32" points="182.55 33.12 142.2 33.12 138.75 50.07 176.1 50.07 171.3 73.02 134.25 73.02 130.65 90.87 171.9 90.87 167.25 114.72 98.86 114.72 119.85 9.72 187.2 9.72 182.55 33.12"/><polygon class="cls-32" points="255.45 9.72 282.75 9.72 261.75 114.72 242.85 114.72 213.75 60.27 209.4 85.62 203.55 114.72 176.25 114.72 197.25 9.72 215.85 9.72 245.1 64.77 249.6 38.82 255.45 9.72"/><polygon class="cls-32" points="358.35 33.12 318 33.12 314.55 50.07 351.9 50.07 347.1 73.02 310.05 73.02 306.45 90.87 347.7 90.87 343.05 114.72 274.65 114.72 295.65 9.72 363 9.72 358.35 33.12"/><polygon class="cls-32" points="433.05 33.87 395.55 33.87 391.5 54.12 425.7 54.12 420.9 78.12 386.85 78.12 379.5 114.72 352.05 114.72 373.05 9.72 437.85 9.72 433.05 33.87"/><path class="cls-33" d="M69.1,32.09H55.15l-3.6,18.3h13.5c7.5,0,11.7-4.2,11.7-10.8C76.75,35.09,73.9,32.09,69.1,32.09ZM88.9,59.84c6.3,4.5,10,12,10,20.55a25.42,25.42,0,0,1-.6,5.7C95.05,103.79,79.6,115,59.2,115H12.55l21-105h42.9c16.5,0,27.14,9.45,27.14,23.55a29.41,29.41,0,0,1-.59,6.15C101.34,48,96.4,54.89,88.9,59.84ZM72,79c0-4.65-2.7-7.65-8-7.65H47.2L43.15,91.94H59.5c6.45,0,11-3.6,12.15-10.2A16.53,16.53,0,0,0,72,79Z"/><polygon class="cls-33" points="182.94 33.44 142.6 33.44 139.15 50.39 176.49 50.39 171.69 73.34 134.65 73.34 131.05 91.19 172.29 91.19 167.65 115.03 99.25 115.03 120.25 10.04 187.59 10.04 182.94 33.44"/><polygon class="cls-33" points="255.84 10.04 283.14 10.04 262.14 115.03 243.24 115.03 214.15 60.59 209.79 85.94 203.95 115.03 176.65 115.03 197.65 10.04 216.25 10.04 245.49 65.09 249.99 39.14 255.84 10.04"/><polygon class="cls-33" points="358.74 33.44 318.39 33.44 314.94 50.39 352.29 50.39 347.49 73.34 310.44 73.34 306.85 91.19 348.09 91.19 343.44 115.03 275.05 115.03 296.05 10.04 363.39 10.04 358.74 33.44"/><polygon class="cls-33" points="433.44 34.19 395.94 34.19 391.89 54.44 426.09 54.44 421.29 78.44 387.24 78.44 379.89 115.03 352.44 115.03 373.44 10.04 438.24 10.04 433.44 34.19"/><path class="cls-34" d="M69.49,32.4H55.54l-3.6,18.3h13.5c7.5,0,11.7-4.2,11.7-10.8C77.14,35.4,74.29,32.4,69.49,32.4Zm19.8,27.75c6.3,4.5,10,12,10,20.55a25.42,25.42,0,0,1-.6,5.7c-3.3,17.7-18.75,28.95-39.15,28.95H12.94l21-105h42.9C93.34,10.35,104,19.8,104,33.9a29.44,29.44,0,0,1-.6,6.15C101.74,48.3,96.79,55.2,89.29,60.15Zm-17,19.2c0-4.65-2.7-7.65-8-7.65H47.59L43.54,92.25H59.89c6.45,0,11-3.6,12.15-10.2A16.53,16.53,0,0,0,72.34,79.35Z"/><polygon class="cls-34" points="183.34 33.75 142.99 33.75 139.54 50.7 176.89 50.7 172.09 73.65 135.04 73.65 131.44 91.5 172.69 91.5 168.04 115.35 99.64 115.35 120.64 10.35 187.99 10.35 183.34 33.75"/><polygon class="cls-34" points="256.24 10.35 283.53 10.35 262.54 115.35 243.64 115.35 214.54 60.9 210.19 86.25 204.34 115.35 177.04 115.35 198.04 10.35 216.64 10.35 245.89 65.4 250.39 39.45 256.24 10.35"/><polygon class="cls-34" points="359.13 33.75 318.79 33.75 315.34 50.7 352.69 50.7 347.89 73.65 310.84 73.65 307.24 91.5 348.49 91.5 343.84 115.35 275.44 115.35 296.44 10.35 363.79 10.35 359.13 33.75"/><polygon class="cls-34" points="433.83 34.5 396.33 34.5 392.29 54.75 426.48 54.75 421.68 78.75 387.64 78.75 380.29 115.35 352.84 115.35 373.84 10.35 438.63 10.35 433.83 34.5"/><path class="cls-35" d="M69.88,32.72H55.93L52.33,51h13.5c7.5,0,11.7-4.19,11.7-10.79C77.53,35.72,74.68,32.72,69.88,32.72Zm19.8,27.74c6.3,4.5,10,12,10,20.55a25.42,25.42,0,0,1-.6,5.7c-3.3,17.7-18.75,29-39.15,29H13.33l21-105h42.9c16.5,0,27.15,9.45,27.15,23.55a29.44,29.44,0,0,1-.6,6.15C102.13,48.61,97.18,55.51,89.68,60.46Zm-17,19.2c0-4.65-2.7-7.65-8-7.65H48l-4,20.55H60.28c6.45,0,11-3.6,12.15-10.2A16.53,16.53,0,0,0,72.73,79.66Z"/><polygon class="cls-35" points="183.73 34.07 143.38 34.07 139.93 51.02 177.28 51.02 172.48 73.96 135.43 73.96 131.83 91.81 173.08 91.81 168.43 115.66 100.03 115.66 121.03 10.67 188.38 10.67 183.73 34.07"/><polygon class="cls-35" points="256.63 10.67 283.93 10.67 262.93 115.66 244.03 115.66 214.93 61.22 210.58 86.56 204.73 115.66 177.43 115.66 198.43 10.67 217.03 10.67 246.28 65.72 250.78 39.77 256.63 10.67"/><polygon class="cls-35" points="359.53 34.07 319.18 34.07 315.73 51.02 353.08 51.02 348.28 73.96 311.23 73.96 307.63 91.81 348.88 91.81 344.23 115.66 275.83 115.66 296.83 10.67 364.18 10.67 359.53 34.07"/><polygon class="cls-35" points="434.23 34.82 396.73 34.82 392.68 55.06 426.88 55.06 422.08 79.06 388.03 79.06 380.68 115.66 353.23 115.66 374.23 10.67 439.03 10.67 434.23 34.82"/><path class="cls-36" d="M70.27,33H56.32l-3.6,18.3h13.5c7.5,0,11.7-4.2,11.7-10.8C77.92,36,75.07,33,70.27,33Zm19.8,27.75c6.3,4.5,10.05,12,10.05,20.55a25.42,25.42,0,0,1-.6,5.7c-3.3,17.7-18.75,29-39.15,29H13.73l21-105h42.9c16.5,0,27.15,9.45,27.15,23.55a29.44,29.44,0,0,1-.6,6.15C102.52,48.93,97.57,55.83,90.07,60.78ZM73.12,80c0-4.65-2.7-7.65-8-7.65H48.37l-4,20.55H60.67c6.45,0,11-3.6,12.15-10.2A16.53,16.53,0,0,0,73.12,80Z"/><polygon class="cls-36" points="184.12 34.38 143.77 34.38 140.32 51.33 177.67 51.33 172.87 74.28 135.82 74.28 132.22 92.13 173.47 92.13 168.82 115.98 100.42 115.98 121.42 10.98 188.77 10.98 184.12 34.38"/><polygon class="cls-36" points="257.02 10.98 284.32 10.98 263.32 115.98 244.42 115.98 215.32 61.53 210.97 86.88 205.12 115.98 177.82 115.98 198.82 10.98 217.42 10.98 246.67 66.03 251.17 40.08 257.02 10.98"/><polygon class="cls-36" points="359.92 34.38 319.57 34.38 316.12 51.33 353.47 51.33 348.67 74.28 311.62 74.28 308.02 92.13 349.27 92.13 344.62 115.98 276.22 115.98 297.22 10.98 364.57 10.98 359.92 34.38"/><polygon class="cls-36" points="434.62 35.13 397.12 35.13 393.07 55.38 427.27 55.38 422.47 79.38 388.42 79.38 381.07 115.98 353.62 115.98 374.62 10.98 439.42 10.98 434.62 35.13"/><path class="cls-37" d="M70.67,33.34h-14l-3.6,18.3h13.5c7.49,0,11.69-4.2,11.69-10.8C78.31,36.34,75.47,33.34,70.67,33.34ZM90.46,61.09c6.3,4.5,10.05,12,10.05,20.55a25.42,25.42,0,0,1-.6,5.7c-3.3,17.7-18.75,29-39.14,29H14.12l21-105H78c16.49,0,27.14,9.45,27.14,23.55a29.44,29.44,0,0,1-.6,6.15C102.91,49.24,98,56.14,90.46,61.09ZM73.52,80.29c0-4.65-2.71-7.65-8-7.65H48.77L44.72,93.19H61.07c6.45,0,10.95-3.6,12.15-10.2A17.71,17.71,0,0,0,73.52,80.29Z"/><polygon class="cls-37" points="184.51 34.69 144.16 34.69 140.71 51.64 178.06 51.64 173.26 74.59 136.21 74.59 132.62 92.44 173.86 92.44 169.21 116.29 100.82 116.29 121.81 11.29 189.16 11.29 184.51 34.69"/><polygon class="cls-37" points="257.41 11.29 284.71 11.29 263.71 116.29 244.81 116.29 215.71 61.84 211.36 87.19 205.51 116.29 178.22 116.29 199.21 11.29 217.81 11.29 247.06 66.34 251.56 40.39 257.41 11.29"/><polygon class="cls-37" points="360.31 34.69 319.96 34.69 316.51 51.64 353.86 51.64 349.06 74.59 312.01 74.59 308.41 92.44 349.66 92.44 345.01 116.29 276.62 116.29 297.61 11.29 364.96 11.29 360.31 34.69"/><polygon class="cls-37" points="435.01 35.44 397.51 35.44 393.46 55.69 427.66 55.69 422.86 79.69 388.81 79.69 381.46 116.29 354.01 116.29 375.01 11.29 439.81 11.29 435.01 35.44"/><path class="cls-38" d="M71.06,33.66h-14L53.51,52H67c7.5,0,11.7-4.2,11.7-10.8C78.71,36.66,75.86,33.66,71.06,33.66Zm19.8,27.75c6.3,4.5,10,12,10,20.55a25.4,25.4,0,0,1-.6,5.69C97,105.35,81.56,116.6,61.16,116.6H14.51l21-105h42.9c16.5,0,27.15,9.45,27.15,23.55a29.44,29.44,0,0,1-.6,6.15C103.31,49.56,98.36,56.46,90.86,61.41Zm-17,19.19c0-4.64-2.7-7.64-8-7.64H49.16l-4,20.54H61.46c6.45,0,10.95-3.6,12.15-10.2A16.53,16.53,0,0,0,73.91,80.6Z"/><polygon class="cls-38" points="184.9 35.01 144.56 35.01 141.11 51.96 178.46 51.96 173.66 74.91 136.61 74.91 133.01 92.75 174.25 92.75 169.61 116.6 101.21 116.6 122.21 11.61 189.56 11.61 184.9 35.01"/><polygon class="cls-38" points="257.8 11.61 285.1 11.61 264.1 116.6 245.21 116.6 216.11 62.16 211.76 87.5 205.91 116.6 178.61 116.6 199.61 11.61 218.21 11.61 247.45 66.66 251.95 40.71 257.8 11.61"/><polygon class="cls-38" points="360.7 35.01 320.36 35.01 316.9 51.96 354.25 51.96 349.45 74.91 312.4 74.91 308.81 92.75 350.05 92.75 345.4 116.6 277.01 116.6 298.01 11.61 365.35 11.61 360.7 35.01"/><polygon class="cls-38" points="435.4 35.76 397.9 35.76 393.85 56.01 428.05 56.01 423.25 80 389.2 80 381.86 116.6 354.4 116.6 375.4 11.61 440.2 11.61 435.4 35.76"/><path class="cls-39" d="M71.45,34h-14l-3.6,18.3H67.4c7.5,0,11.7-4.2,11.7-10.8C79.1,37,76.25,34,71.45,34Zm19.8,27.75c6.3,4.5,10,12,10,20.55a25.42,25.42,0,0,1-.6,5.7c-3.3,17.7-18.75,29-39.15,29H14.9l21-105H78.8c16.5,0,27.15,9.45,27.15,23.55a29.44,29.44,0,0,1-.6,6.15C103.7,49.87,98.75,56.77,91.25,61.72Zm-17,19.2c0-4.65-2.7-7.65-8-7.65H49.55l-4,20.55H61.85c6.45,0,10.95-3.6,12.15-10.2A16.53,16.53,0,0,0,74.3,80.92Z"/><polygon class="cls-39" points="185.3 35.32 144.95 35.32 141.5 52.27 178.85 52.27 174.05 75.22 137 75.22 133.4 93.07 174.65 93.07 170 116.92 101.6 116.92 122.6 11.92 189.95 11.92 185.3 35.32"/><polygon class="cls-39" points="258.2 11.92 285.5 11.92 264.5 116.92 245.6 116.92 216.5 62.47 212.15 87.82 206.3 116.92 179 116.92 200 11.92 218.6 11.92 247.85 66.97 252.35 41.02 258.2 11.92"/><polygon class="cls-39" points="361.1 35.32 320.75 35.32 317.3 52.27 354.65 52.27 349.85 75.22 312.8 75.22 309.2 93.07 350.45 93.07 345.8 116.92 277.4 116.92 298.4 11.92 365.75 11.92 361.1 35.32"/><polygon class="cls-39" points="435.8 36.07 398.3 36.07 394.25 56.32 428.44 56.32 423.64 80.32 389.6 80.32 382.25 116.92 354.8 116.92 375.8 11.92 440.59 11.92 435.8 36.07"/><path class="cls-40" d="M71.84,34.28h-14l-3.6,18.3h13.5c7.5,0,11.7-4.2,11.7-10.8C79.49,37.28,76.64,34.28,71.84,34.28ZM91.64,62c6.3,4.5,10,12,10,20.55a25.42,25.42,0,0,1-.6,5.7c-3.3,17.7-18.75,29-39.15,29H15.29l21-105h42.9c16.5,0,27.15,9.45,27.15,23.54a29.44,29.44,0,0,1-.6,6.15C104.09,50.18,99.14,57.08,91.64,62Zm-17,19.2c0-4.65-2.7-7.65-8-7.65H49.94l-4,20.55H62.24c6.45,0,10.95-3.6,12.15-10.2A16.53,16.53,0,0,0,74.69,81.23Z"/><polygon class="cls-40" points="185.69 35.63 145.34 35.63 141.89 52.58 179.24 52.58 174.44 75.53 137.39 75.53 133.79 93.38 175.04 93.38 170.39 117.23 101.99 117.23 122.99 12.23 190.34 12.23 185.69 35.63"/><polygon class="cls-40" points="258.59 12.23 285.89 12.23 264.89 117.23 245.99 117.23 216.89 62.78 212.54 88.13 206.69 117.23 179.39 117.23 200.39 12.23 218.99 12.23 248.24 67.28 252.74 41.33 258.59 12.23"/><polygon class="cls-40" points="361.49 35.63 321.14 35.63 317.69 52.58 355.04 52.58 350.24 75.53 313.19 75.53 309.59 93.38 350.84 93.38 346.19 117.23 277.79 117.23 298.79 12.23 366.14 12.23 361.49 35.63"/><polygon class="cls-40" points="436.19 36.38 398.69 36.38 394.64 56.63 428.84 56.63 424.04 80.63 389.99 80.63 382.64 117.23 355.19 117.23 376.19 12.23 440.99 12.23 436.19 36.38"/><path class="cls-41" d="M72.23,34.6h-14l-3.6,18.3h13.5c7.5,0,11.7-4.2,11.7-10.8C79.88,37.6,77,34.6,72.23,34.6ZM92,62.35c6.3,4.5,10,12,10,20.55a25.42,25.42,0,0,1-.6,5.7c-3.3,17.7-18.75,28.94-39.15,28.94H15.69l21-105H79.58c16.5,0,27.15,9.45,27.15,23.55a29.44,29.44,0,0,1-.6,6.15C104.48,50.5,99.53,57.4,92,62.35Zm-17,19.2c0-4.65-2.7-7.65-8-7.65H50.33l-4,20.55H62.63c6.45,0,10.95-3.6,12.15-10.2A16.53,16.53,0,0,0,75.08,81.55Z"/><polygon class="cls-41" points="186.08 35.95 145.73 35.95 142.28 52.9 179.63 52.9 174.83 75.85 137.78 75.85 134.18 93.7 175.43 93.7 170.78 117.55 102.39 117.55 123.38 12.55 190.73 12.55 186.08 35.95"/><polygon class="cls-41" points="258.98 12.55 286.28 12.55 265.28 117.55 246.38 117.55 217.28 63.1 212.93 88.45 207.08 117.55 179.78 117.55 200.78 12.55 219.38 12.55 248.63 67.6 253.13 41.65 258.98 12.55"/><polygon class="cls-41" points="361.88 35.95 321.53 35.95 318.08 52.9 355.43 52.9 350.63 75.85 313.58 75.85 309.98 93.7 351.23 93.7 346.58 117.55 278.18 117.55 299.18 12.55 366.53 12.55 361.88 35.95"/><polygon class="cls-41" points="436.58 36.7 399.08 36.7 395.03 56.95 429.23 56.95 424.43 80.95 390.38 80.95 383.03 117.55 355.58 117.55 376.58 12.55 441.38 12.55 436.58 36.7"/><path class="cls-42" d="M72.63,34.91H58.68l-3.6,18.3h13.5c7.5,0,11.7-4.2,11.7-10.8C80.28,37.91,77.43,34.91,72.63,34.91Zm19.8,27.75c6.29,4.5,10,12,10,20.55a26,26,0,0,1-.59,5.7c-3.31,17.7-18.75,29-39.15,29H16.08l21-105H80c16.49,0,27.14,9.45,27.14,23.55a29.44,29.44,0,0,1-.6,6.15C104.87,50.81,99.93,57.71,92.43,62.66Zm-17,19.2c0-4.65-2.7-7.65-8-7.65H50.73l-4,20.55H63c6.45,0,11-3.6,12.15-10.2A16.53,16.53,0,0,0,75.48,81.86Z"/><polygon class="cls-42" points="186.47 36.26 146.13 36.26 142.68 53.21 180.02 53.21 175.22 76.16 138.18 76.16 134.58 94.01 175.82 94.01 171.17 117.86 102.78 117.86 123.78 12.86 191.12 12.86 186.47 36.26"/><polygon class="cls-42" points="259.37 12.86 286.67 12.86 265.67 117.86 246.77 117.86 217.67 63.41 213.32 88.76 207.47 117.86 180.18 117.86 201.18 12.86 219.78 12.86 249.02 67.91 253.52 41.96 259.37 12.86"/><polygon class="cls-42" points="362.27 36.26 321.92 36.26 318.47 53.21 355.82 53.21 351.02 76.16 313.97 76.16 310.37 94.01 351.62 94.01 346.97 117.86 278.58 117.86 299.57 12.86 366.92 12.86 362.27 36.26"/><polygon class="cls-42" points="436.97 37.01 399.47 37.01 395.42 57.26 429.62 57.26 424.82 81.26 390.77 81.26 383.42 117.86 355.97 117.86 376.97 12.86 441.77 12.86 436.97 37.01"/><path class="cls-43" d="M73,35.23H59.07l-3.6,18.29H69c7.5,0,11.7-4.2,11.7-10.79C80.67,38.23,77.82,35.23,73,35.23ZM92.82,63c6.3,4.5,10.05,12,10.05,20.55a25.42,25.42,0,0,1-.6,5.7c-3.3,17.7-18.75,29-39.15,29H16.47l21-105h42.9c16.5,0,27.15,9.45,27.15,23.55a29.44,29.44,0,0,1-.6,6.15C105.27,51.12,100.32,58,92.82,63ZM75.87,82.17c0-4.65-2.7-7.65-8-7.65H51.12l-4,20.55H63.42c6.45,0,11-3.6,12.15-10.2A16.53,16.53,0,0,0,75.87,82.17Z"/><polygon class="cls-43" points="186.87 36.58 146.52 36.58 143.07 53.52 180.42 53.52 175.62 76.47 138.57 76.47 134.97 94.32 176.22 94.32 171.57 118.17 103.17 118.17 124.17 13.18 191.52 13.18 186.87 36.58"/><polygon class="cls-43" points="259.76 13.18 287.06 13.18 266.06 118.17 247.17 118.17 218.07 63.72 213.72 89.07 207.87 118.17 180.57 118.17 201.57 13.18 220.17 13.18 249.41 68.22 253.91 42.27 259.76 13.18"/><polygon class="cls-43" points="362.66 36.58 322.32 36.58 318.87 53.52 356.21 53.52 351.42 76.47 314.37 76.47 310.77 94.32 352.01 94.32 347.37 118.17 278.97 118.17 299.97 13.18 367.31 13.18 362.66 36.58"/><polygon class="cls-43" points="437.36 37.33 399.86 37.33 395.81 57.57 430.01 57.57 425.21 81.57 391.17 81.57 383.81 118.17 356.37 118.17 377.37 13.18 442.16 13.18 437.36 37.33"/><path class="cls-44" d="M73.41,35.54H59.46l-3.6,18.3h13.5c7.5,0,11.7-4.2,11.7-10.8C81.06,38.54,78.21,35.54,73.41,35.54Zm19.8,27.75c6.3,4.5,10.05,12,10.05,20.55a25.42,25.42,0,0,1-.6,5.7c-3.3,17.7-18.75,28.95-39.15,28.95H16.86l21-105h42.9c16.5,0,27.15,9.45,27.15,23.55a29.44,29.44,0,0,1-.6,6.15C105.66,51.44,100.71,58.34,93.21,63.29ZM76.26,82.49c0-4.65-2.7-7.65-8-7.65H51.51l-4,20.55H63.81c6.45,0,11-3.6,12.15-10.2A16.53,16.53,0,0,0,76.26,82.49Z"/><polygon class="cls-44" points="187.26 36.89 146.91 36.89 143.46 53.84 180.81 53.84 176.01 76.79 138.96 76.79 135.36 94.64 176.61 94.64 171.96 118.49 103.56 118.49 124.56 13.49 191.91 13.49 187.26 36.89"/><polygon class="cls-44" points="260.16 13.49 287.46 13.49 266.46 118.49 247.56 118.49 218.46 64.04 214.11 89.39 208.26 118.49 180.96 118.49 201.96 13.49 220.56 13.49 249.81 68.54 254.31 42.59 260.16 13.49"/><polygon class="cls-44" points="363.06 36.89 322.71 36.89 319.26 53.84 356.61 53.84 351.81 76.79 314.76 76.79 311.16 94.64 352.41 94.64 347.76 118.49 279.36 118.49 300.36 13.49 367.71 13.49 363.06 36.89"/><polygon class="cls-44" points="437.75 37.64 400.26 37.64 396.21 57.89 430.4 57.89 425.61 81.89 391.56 81.89 384.21 118.49 356.76 118.49 377.76 13.49 442.56 13.49 437.75 37.64"/><path class="cls-45" d="M73.8,35.85H59.85l-3.6,18.3h13.5c7.5,0,11.7-4.2,11.7-10.8C81.45,38.85,78.6,35.85,73.8,35.85ZM93.6,63.6c6.3,4.5,10.05,12,10.05,20.55a25.42,25.42,0,0,1-.6,5.7c-3.3,17.7-18.75,29-39.15,29H17.25l21-105h42.9c16.5,0,27.15,9.45,27.15,23.55a29.44,29.44,0,0,1-.6,6.15C106.05,51.75,101.1,58.65,93.6,63.6ZM76.65,82.8c0-4.65-2.7-7.65-8-7.65H51.9l-4,20.55H64.2c6.45,0,11-3.6,12.15-10.2A16.53,16.53,0,0,0,76.65,82.8Z"/><polygon class="cls-45" points="187.65 37.2 147.3 37.2 143.85 54.15 181.2 54.15 176.4 77.1 139.35 77.1 135.75 94.95 177 94.95 172.35 118.8 103.95 118.8 124.95 13.8 192.3 13.8 187.65 37.2"/><polygon class="cls-45" points="260.55 13.8 287.85 13.8 266.85 118.8 247.95 118.8 218.85 64.35 214.5 89.7 208.65 118.8 181.35 118.8 202.35 13.8 220.95 13.8 250.2 68.85 254.7 42.9 260.55 13.8"/><polygon class="cls-45" points="363.45 37.2 323.1 37.2 319.65 54.15 357 54.15 352.2 77.1 315.15 77.1 311.55 94.95 352.8 94.95 348.15 118.8 279.75 118.8 300.75 13.8 368.1 13.8 363.45 37.2"/><polygon class="cls-45" points="438.15 37.95 400.65 37.95 396.6 58.2 430.8 58.2 426 82.2 391.95 82.2 384.6 118.8 357.15 118.8 378.15 13.8 442.95 13.8 438.15 37.95"/><path class="cls-46" d="M74.19,36.17H60.25l-3.6,18.3h13.5c7.49,0,11.69-4.2,11.69-10.8C81.84,39.17,79,36.17,74.19,36.17ZM94,63.92c6.3,4.5,10.05,12,10.05,20.54a25.42,25.42,0,0,1-.6,5.7c-3.3,17.7-18.75,29-39.14,29H17.65l21-105H81.54c16.5,0,27.15,9.45,27.15,23.55a29.44,29.44,0,0,1-.6,6.15C106.44,52.07,101.49,59,94,63.92ZM77,83.11c0-4.65-2.7-7.65-7.94-7.65H52.3L48.25,96H64.6c6.44,0,10.94-3.6,12.14-10.2A16.53,16.53,0,0,0,77,83.11Z"/><polygon class="cls-46" points="188.04 37.52 147.69 37.52 144.24 54.47 181.59 54.47 176.79 77.42 139.74 77.42 136.14 95.26 177.39 95.26 172.74 119.11 104.34 119.11 125.34 14.12 192.69 14.12 188.04 37.52"/><polygon class="cls-46" points="260.94 14.12 288.24 14.12 267.24 119.11 248.34 119.11 219.24 64.67 214.89 90.02 209.04 119.11 181.75 119.11 202.74 14.12 221.34 14.12 250.59 69.17 255.09 43.22 260.94 14.12"/><polygon class="cls-46" points="363.84 37.52 323.49 37.52 320.04 54.47 357.39 54.47 352.59 77.42 315.54 77.42 311.94 95.26 353.19 95.26 348.54 119.11 280.14 119.11 301.14 14.12 368.49 14.12 363.84 37.52"/><polygon class="cls-46" points="438.54 38.27 401.04 38.27 396.99 58.52 431.19 58.52 426.39 82.52 392.34 82.52 384.99 119.11 357.54 119.11 378.54 14.12 443.34 14.12 438.54 38.27"/><path class="cls-47" d="M74.59,36.48h-14L57,54.78h13.5c7.5,0,11.7-4.2,11.7-10.8C82.24,39.48,79.39,36.48,74.59,36.48Zm19.8,27.75c6.3,4.5,10,12,10,20.55a25.42,25.42,0,0,1-.6,5.7c-3.3,17.7-18.75,29-39.15,29H18l21-105h42.9c16.5,0,27.15,9.45,27.15,23.55a29.44,29.44,0,0,1-.6,6.15C106.84,52.38,101.89,59.28,94.39,64.23Zm-17,19.2c0-4.65-2.7-7.65-8-7.65H52.69l-4,20.55H65c6.45,0,11-3.6,12.15-10.2A16.53,16.53,0,0,0,77.44,83.43Z"/><polygon class="cls-47" points="188.43 37.83 148.09 37.83 144.64 54.78 181.99 54.78 177.19 77.73 140.14 77.73 136.54 95.58 177.78 95.58 173.13 119.43 104.74 119.43 125.74 14.43 193.08 14.43 188.43 37.83"/><polygon class="cls-47" points="261.33 14.43 288.63 14.43 267.63 119.43 248.74 119.43 219.63 64.98 215.28 90.33 209.44 119.43 182.14 119.43 203.14 14.43 221.74 14.43 250.98 69.48 255.48 43.53 261.33 14.43"/><polygon class="cls-47" points="364.23 37.83 323.88 37.83 320.44 54.78 357.78 54.78 352.98 77.73 315.94 77.73 312.33 95.58 353.58 95.58 348.93 119.43 280.54 119.43 301.54 14.43 368.88 14.43 364.23 37.83"/><polygon class="cls-47" points="438.93 38.58 401.43 38.58 397.38 58.83 431.58 58.83 426.78 82.83 392.73 82.83 385.38 119.43 357.94 119.43 378.93 14.43 443.73 14.43 438.93 38.58"/><path class="cls-48" d="M75,36.79H61l-3.6,18.3h13.5c7.5,0,11.7-4.2,11.7-10.8C82.63,39.79,79.78,36.79,75,36.79Zm19.8,27.75c6.3,4.5,10,12,10,20.55a25.42,25.42,0,0,1-.6,5.7c-3.3,17.7-18.75,28.95-39.15,28.95H18.43l21-105h42.9c16.5,0,27.15,9.44,27.15,23.54a29.44,29.44,0,0,1-.6,6.15C107.23,52.69,102.28,59.59,94.78,64.54Zm-17,19.2c0-4.65-2.7-7.65-8-7.65H53.08L49,96.64H65.38c6.45,0,11-3.6,12.15-10.2A16.53,16.53,0,0,0,77.83,83.74Z"/><polygon class="cls-48" points="188.83 38.14 148.48 38.14 145.03 55.09 182.38 55.09 177.58 78.04 140.53 78.04 136.93 95.89 178.18 95.89 173.53 119.74 105.13 119.74 126.13 14.74 193.48 14.74 188.83 38.14"/><polygon class="cls-48" points="261.73 14.74 289.02 14.74 268.02 119.74 249.13 119.74 220.03 65.29 215.68 90.64 209.83 119.74 182.53 119.74 203.53 14.74 222.13 14.74 251.38 69.79 255.88 43.84 261.73 14.74"/><polygon class="cls-48" points="364.63 38.14 324.28 38.14 320.83 55.09 358.18 55.09 353.38 78.04 316.33 78.04 312.73 95.89 353.98 95.89 349.33 119.74 280.93 119.74 301.93 14.74 369.27 14.74 364.63 38.14"/><polygon class="cls-48" points="439.32 38.89 401.82 38.89 397.77 59.14 431.97 59.14 427.17 83.14 393.13 83.14 385.78 119.74 358.33 119.74 379.33 14.74 444.12 14.74 439.32 38.89"/><path class="cls-49" d="M75.37,37.11h-14l-3.6,18.3h13.5c7.5,0,11.7-4.2,11.7-10.8C83,40.11,80.17,37.11,75.37,37.11Zm19.8,27.75c6.3,4.5,10,12,10,20.55a25.42,25.42,0,0,1-.6,5.7c-3.3,17.69-18.75,28.94-39.15,28.94H18.82l21-105h42.9c16.5,0,27.15,9.45,27.15,23.55a29.44,29.44,0,0,1-.6,6.15C107.62,53,102.67,59.91,95.17,64.86Zm-17,19.2c0-4.65-2.7-7.65-8-7.65H53.47L49.42,97H65.77c6.45,0,11-3.6,12.15-10.2A16.53,16.53,0,0,0,78.22,84.06Z"/><polygon class="cls-49" points="189.22 38.46 148.87 38.46 145.42 55.41 182.77 55.41 177.97 78.36 140.92 78.36 137.32 96.2 178.57 96.2 173.92 120.05 105.52 120.05 126.52 15.06 193.87 15.06 189.22 38.46"/><polygon class="cls-49" points="262.12 15.06 289.42 15.06 268.42 120.05 249.52 120.05 220.42 65.61 216.07 90.96 210.22 120.05 182.92 120.05 203.92 15.06 222.52 15.06 251.77 70.11 256.27 44.16 262.12 15.06"/><polygon class="cls-49" points="365.02 38.46 324.67 38.46 321.22 55.41 358.57 55.41 353.77 78.36 316.72 78.36 313.12 96.2 354.37 96.2 349.72 120.05 281.32 120.05 302.32 15.06 369.67 15.06 365.02 38.46"/><polygon class="cls-49" points="439.72 39.21 402.22 39.21 398.17 59.46 432.37 59.46 427.57 83.46 393.52 83.46 386.17 120.05 358.72 120.05 379.72 15.06 444.52 15.06 439.72 39.21"/><path class="cls-50" d="M75.76,37.42h-14l-3.6,18.3h13.5c7.5,0,11.7-4.2,11.7-10.8C83.41,40.42,80.56,37.42,75.76,37.42Zm19.8,27.75c6.3,4.5,10,12,10,20.55a25.42,25.42,0,0,1-.6,5.7c-3.3,17.7-18.75,29-39.15,29H19.22l21-105h42.9c16.5,0,27.15,9.45,27.15,23.55a29.44,29.44,0,0,1-.6,6.15C108,53.32,103.06,60.22,95.56,65.17Zm-17,19.2c0-4.65-2.7-7.65-8-7.65H53.86l-4,20.55H66.16c6.45,0,11-3.6,12.15-10.2A16.53,16.53,0,0,0,78.61,84.37Z"/><polygon class="cls-50" points="189.61 38.77 149.26 38.77 145.81 55.72 183.16 55.72 178.36 78.67 141.31 78.67 137.71 96.52 178.96 96.52 174.31 120.37 105.91 120.37 126.91 15.37 194.26 15.37 189.61 38.77"/><polygon class="cls-50" points="262.51 15.37 289.81 15.37 268.81 120.37 249.91 120.37 220.81 65.92 216.46 91.27 210.61 120.37 183.31 120.37 204.31 15.37 222.91 15.37 252.16 70.42 256.66 44.47 262.51 15.37"/><polygon class="cls-50" points="365.41 38.77 325.06 38.77 321.61 55.72 358.96 55.72 354.16 78.67 317.11 78.67 313.51 96.52 354.76 96.52 350.11 120.37 281.71 120.37 302.71 15.37 370.06 15.37 365.41 38.77"/><polygon class="cls-50" points="440.11 39.52 402.61 39.52 398.56 59.77 432.76 59.77 427.96 83.77 393.91 83.77 386.56 120.37 359.11 120.37 380.11 15.37 444.91 15.37 440.11 39.52"/><path class="cls-51" d="M76.16,37.74H62.21L58.61,56h13.5c7.49,0,11.7-4.2,11.7-10.79C83.81,40.74,81,37.74,76.16,37.74ZM96,65.48c6.3,4.5,10,12,10,20.55a25.42,25.42,0,0,1-.6,5.7c-3.3,17.7-18.75,29-39.14,29H19.61l21-105h42.9c16.49,0,27.14,9.45,27.14,23.55a29.5,29.5,0,0,1-.6,6.15C108.4,53.63,103.45,60.53,96,65.48ZM79,84.68c0-4.65-2.7-7.65-8-7.65H54.26l-4,20.55H66.56c6.45,0,11-3.6,12.15-10.2A17.71,17.71,0,0,0,79,84.68Z"/><polygon class="cls-51" points="190 39.09 149.66 39.09 146.21 56.03 183.55 56.03 178.75 78.98 141.71 78.98 138.1 96.83 179.35 96.83 174.7 120.68 106.31 120.68 127.31 15.69 194.65 15.69 190 39.09"/><polygon class="cls-51" points="262.9 15.69 290.2 15.69 269.2 120.68 250.3 120.68 221.2 66.23 216.85 91.58 211 120.68 183.71 120.68 204.71 15.69 223.3 15.69 252.55 70.73 257.05 44.78 262.9 15.69"/><polygon class="cls-51" points="365.8 39.09 325.45 39.09 322 56.03 359.35 56.03 354.55 78.98 317.5 78.98 313.9 96.83 355.15 96.83 350.5 120.68 282.11 120.68 303.1 15.69 370.45 15.69 365.8 39.09"/><polygon class="cls-51" points="440.5 39.84 403 39.84 398.95 60.08 433.15 60.08 428.35 84.08 394.3 84.08 386.95 120.68 359.5 120.68 380.5 15.69 445.3 15.69 440.5 39.84"/><path class="cls-52" d="M76.55,38.05H62.6L59,56.35H72.5c7.5,0,11.7-4.2,11.7-10.8C84.2,41.05,81.35,38.05,76.55,38.05ZM96.35,65.8c6.3,4.5,10.05,12,10.05,20.55a25.42,25.42,0,0,1-.6,5.7c-3.3,17.7-18.75,29-39.15,29H20L41,16H83.9c16.5,0,27.15,9.45,27.15,23.55a29.44,29.44,0,0,1-.6,6.15C108.8,54,103.85,60.85,96.35,65.8ZM79.4,85c0-4.65-2.7-7.65-8-7.65H54.65l-4,20.55H67c6.45,0,11-3.6,12.15-10.2A16.53,16.53,0,0,0,79.4,85Z"/><path class="cls-52" d="M190.39,39.4H150.05l-3.45,17H184l-4.8,22.95H142.1l-3.6,17.85h41.25L175.1,121H106.7l21-105H195Z"/><path class="cls-52" d="M263.29,16h27.3l-21,105H250.7L221.6,66.55,217.25,91.9,211.4,121H184.1l21-105h18.6l29.24,55.05,4.5-25.95Z"/><path class="cls-52" d="M366.19,39.4H325.85l-3.45,17h37.34l-4.8,22.95h-37l-3.6,17.85h41.24L350.89,121H282.5l21-105h67.34Z"/><path class="cls-52" d="M440.89,40.15h-37.5L399.34,60.4h34.2l-4.8,24H394.69L387.34,121H359.9l21-105h64.8Z"/></g></g></svg>